<svg xmlns="http://www.w3.org/2000/svg" xmlns:xlink="http://www.w3.org/1999/xlink" width="33.687" height="42.87" viewBox="0 0 33.687 42.87">
  <defs>
    <clipPath id="clip-path">
      <rect id="Rectángulo_150" data-name="Rectángulo 150" width="33.687" height="42.87" fill="#fff"/>
    </clipPath>
  </defs>
  <g id="Grupo_169" data-name="Grupo 169" clip-path="url(#clip-path)">
    <path id="Trazado_965" data-name="Trazado 965" d="M27.24,13.809c-4.408,11.056-2.77,28.862-2.751,29.061H21.806c-.075-.779-1.494-16,2.053-27.547a12.661,12.661,0,0,1-7.016,2.234,12.568,12.568,0,0,1-6.765-2.072c3.631,11.48,2.19,26.615,2.114,27.385H9.511c.021-.215,2.026-21.647-4.387-31.961A36.813,36.813,0,0,1,0,1.88L2.495.86c3.637,8.9,8.867,14,14.349,14,3.467,0,6.832-2.043,9.758-5.793l.011-.018h0A34.751,34.751,0,0,0,31.192.862l2.494,1.02a39.064,39.064,0,0,1-4.044,7.583,21.614,21.614,0,0,0-2.4,4.344M14.371,3.663a3.307,3.307,0,1,1-.952,2.68,3.306,3.306,0,0,1,.952-2.68m1.731,8.31a6,6,0,1,0-5.364-5.364A6.029,6.029,0,0,0,16.1,11.973" transform="translate(0 0)" fill="#fff" fill-rule="evenodd"/>
  </g>
</svg>
